<svg width="1086" height="1448" viewBox="0 0 1086 1448" xmlns="http://www.w3.org/2000/svg">
  <title>Girl Writing Side Profile - Minimal Green Vector</title>
  <desc>Vector recreation of a green vintage screen-print style side-profile girl writing, with only the girl and atmospheric visual effects.</desc>
  <defs>
    <filter id="paperNoise" x="-5%" y="-5%" width="110%" height="110%">
      <feTurbulence type="fractalNoise" baseFrequency="0.75" numOctaves="4" seed="12"/>
      <feColorMatrix type="saturate" values="0"/>
      <feComponentTransfer><feFuncA type="table" tableValues="0 0.035"/></feComponentTransfer>
      <feBlend mode="multiply" in2="SourceGraphic"/>
    </filter>
    <filter id="roughen" x="-3%" y="-3%" width="106%" height="106%">
      <feTurbulence type="fractalNoise" baseFrequency="0.018" numOctaves="3" seed="8" result="n"/>
      <feDisplacementMap in="SourceGraphic" in2="n" scale="2.2" xChannelSelector="R" yChannelSelector="G"/>
    </filter>
    <clipPath id="greenClip"><path d="M488.0,242.0 L431.0,279.0 L416.0,295.0 L386.0,310.0 L345.0,353.0 L325.0,380.0 L305.0,423.0 L300.0,476.0 L309.0,501.0 L323.0,521.0 L336.0,530.0 L342.0,527.0 L359.0,531.0 L359.0,527.0 L332.0,504.0 L321.0,479.0 L321.0,462.0 L337.0,496.0 L350.0,508.0 L368.0,516.0 L382.0,518.0 L410.0,511.0 L390.0,502.0 L381.0,494.0 L382.0,490.0 L408.0,503.0 L454.0,506.0 L472.0,516.0 L502.0,519.0 L522.0,512.0 L536.0,516.0 L529.0,482.0 L534.0,468.0 L547.0,460.0 L541.0,500.0 L557.0,533.0 L561.0,573.0 L546.0,700.0 L495.0,743.0 L477.0,747.0 L498.0,748.0 L537.0,731.0 L520.0,786.0 L534.0,760.0 L543.0,728.0 L573.0,712.0 L567.0,778.0 L555.0,808.0 L541.0,821.0 L544.0,824.0 L567.0,815.0 L586.0,777.0 L587.0,798.0 L577.0,820.0 L581.0,822.0 L648.0,798.0 L663.0,785.0 L672.0,785.0 L695.0,774.0 L663.0,853.0 L630.0,981.0 L589.0,1003.0 L537.0,1044.0 L436.0,1040.0 L425.0,1048.0 L323.0,993.0 L378.0,906.0 L388.0,879.0 L375.0,869.0 L349.0,898.0 L297.0,986.0 L221.0,1007.0 L211.0,1017.0 L208.0,1029.0 L214.0,1086.0 L208.0,1095.0 L208.0,1104.0 L218.0,1115.0 L205.0,1155.0 L132.0,1158.0 L552.0,1170.0 L733.0,1218.0 L858.0,1263.0 L1085.0,1363.0 L1085.0,888.0 L951.0,717.0 L926.0,694.0 L895.0,676.0 L906.0,667.0 L912.0,669.0 L924.0,663.0 L936.0,640.0 L937.0,656.0 L951.0,651.0 L961.0,634.0 L959.0,607.0 L948.0,579.0 L915.0,533.0 L951.0,561.0 L970.0,591.0 L980.0,624.0 L982.0,603.0 L974.0,580.0 L947.0,545.0 L863.0,475.0 L763.0,323.0 L689.0,248.0 L658.0,231.0 L611.0,219.0 L542.0,224.0 Z M210.0,1097.0 L212.0,1092.0 L227.0,1078.0 L239.0,1064.0 L250.0,1059.0 L255.0,1059.0 L258.0,1057.0 L284.0,1052.0 L303.0,1042.0 L308.0,1035.0 L313.0,1023.0 L317.0,1002.0 L321.0,996.0 L336.0,1003.0 L344.0,1009.0 L366.0,1020.0 L378.0,1028.0 L381.0,1028.0 L386.0,1032.0 L394.0,1035.0 L402.0,1041.0 L426.0,1052.0 L421.0,1084.0 L422.0,1087.0 L421.0,1107.0 L426.0,1138.0 L422.0,1140.0 L415.0,1139.0 L387.0,1140.0 L376.0,1137.0 L372.0,1133.0 L361.0,1133.0 L345.0,1129.0 L316.0,1114.0 L301.0,1103.0 L303.0,1100.0 L302.0,1099.0 L297.0,1100.0 L291.0,1098.0 L279.0,1098.0 L264.0,1100.0 L246.0,1110.0 L238.0,1112.0 L223.0,1112.0 L215.0,1109.0 L210.0,1103.0 Z M208.0,1156.0 L217.0,1145.0 L231.0,1133.0 L237.0,1126.0 L240.0,1128.0 L242.0,1133.0 L246.0,1135.0 L242.0,1124.0 L242.0,1118.0 L246.0,1112.0 L251.0,1112.0 L258.0,1115.0 L265.0,1113.0 L271.0,1122.0 L281.0,1122.0 L282.0,1121.0 L293.0,1122.0 L294.0,1124.0 L300.0,1127.0 L305.0,1133.0 L310.0,1133.0 L313.0,1138.0 L337.0,1148.0 L365.0,1149.0 L366.0,1148.0 L383.0,1146.0 L388.0,1144.0 L393.0,1144.0 L396.0,1142.0 L398.0,1143.0 L399.0,1142.0 L403.0,1143.0 L414.0,1142.0 L425.0,1144.0 L428.0,1143.0 L433.0,1152.0 L432.0,1154.0 L406.0,1154.0 L405.0,1155.0 L322.0,1155.0 L321.0,1156.0 L319.0,1155.0 L313.0,1155.0 L312.0,1156.0 L300.0,1156.0 L299.0,1155.0 L297.0,1156.0 L296.0,1155.0 L295.0,1156.0 L238.0,1156.0 L237.0,1157.0 L225.0,1157.0 L224.0,1156.0 L209.0,1157.0 Z M293.0,989.0 L294.0,990.0 L294.0,992.0 L292.0,994.0 L288.0,1002.0 L284.0,1007.0 L281.0,1014.0 L279.0,1016.0 L276.0,1022.0 L272.0,1027.0 L270.0,1032.0 L266.0,1035.0 L263.0,1035.0 L260.0,1037.0 L258.0,1037.0 L254.0,1039.0 L251.0,1039.0 L250.0,1040.0 L247.0,1040.0 L245.0,1039.0 L245.0,1044.0 L246.0,1045.0 L246.0,1057.0 L244.0,1059.0 L237.0,1062.0 L237.0,1063.0 L232.0,1068.0 L232.0,1069.0 L221.0,1080.0 L219.0,1081.0 L217.0,1081.0 L216.0,1080.0 L216.0,1072.0 L215.0,1071.0 L215.0,1058.0 L214.0,1057.0 L214.0,1054.0 L213.0,1053.0 L213.0,1043.0 L212.0,1042.0 L212.0,1037.0 L211.0,1036.0 L211.0,1031.0 L212.0,1030.0 L212.0,1023.0 L213.0,1022.0 L213.0,1020.0 L214.0,1018.0 L219.0,1013.0 L222.0,1012.0 L224.0,1010.0 L226.0,1010.0 L227.0,1009.0 L229.0,1009.0 L230.0,1008.0 L232.0,1008.0 L233.0,1007.0 L235.0,1007.0 L236.0,1006.0 L238.0,1006.0 L239.0,1005.0 L241.0,1005.0 L242.0,1004.0 L244.0,1004.0 L245.0,1003.0 L247.0,1003.0 L248.0,1002.0 L253.0,1001.0 L258.0,998.0 L260.0,999.0 L261.0,998.0 L264.0,998.0 L268.0,996.0 L275.0,995.0 L277.0,993.0 L280.0,993.0 L281.0,992.0 L283.0,992.0 L284.0,991.0 L286.0,991.0 L290.0,989.0 Z M565.0,607.0 L566.0,608.0 L566.0,618.0 L567.0,619.0 L567.0,632.0 L568.0,633.0 L568.0,647.0 L569.0,648.0 L569.0,653.0 L570.0,654.0 L570.0,665.0 L571.0,666.0 L571.0,682.0 L572.0,683.0 L572.0,688.0 L571.0,689.0 L568.0,689.0 L567.0,690.0 L565.0,690.0 L561.0,692.0 L559.0,694.0 L557.0,694.0 L553.0,698.0 L552.0,698.0 L551.0,697.0 L551.0,691.0 L552.0,690.0 L552.0,684.0 L553.0,683.0 L553.0,679.0 L554.0,678.0 L554.0,675.0 L555.0,674.0 L555.0,664.0 L557.0,660.0 L557.0,651.0 L558.0,650.0 L558.0,647.0 L559.0,646.0 L559.0,636.0 L560.0,635.0 L560.0,631.0 L561.0,630.0 L561.0,619.0 L562.0,618.0 L562.0,611.0 L563.0,610.0 L563.0,608.0 Z M390.0,556.0 L398.0,572.0 L398.0,582.0 L394.0,588.0 L391.0,589.0 L389.0,591.0 L385.0,593.0 L382.0,593.0 L382.0,595.0 L386.0,595.0 L387.0,596.0 L394.0,596.0 L395.0,595.0 L398.0,595.0 L402.0,593.0 L404.0,594.0 L406.0,594.0 L409.0,591.0 L411.0,591.0 L412.0,592.0 L413.0,591.0 L415.0,591.0 L415.0,590.0 L418.0,587.0 L421.0,581.0 L421.0,579.0 L422.0,578.0 L422.0,575.0 L423.0,574.0 L423.0,569.0 L424.0,568.0 L424.0,565.0 L426.0,563.0 L427.0,560.0 L426.0,559.0 L418.0,566.0 L417.0,566.0 L412.0,570.0 L407.0,572.0 L405.0,574.0 L401.0,574.0 L399.0,572.0 L399.0,570.0 L395.0,562.0 L393.0,560.0 L392.0,557.0 Z M370.0,538.0 L372.0,542.0 L375.0,545.0 L376.0,545.0 L381.0,549.0 L385.0,549.0 L383.0,545.0 L383.0,543.0 L384.0,542.0 L384.0,540.0 L385.0,538.0 L388.0,535.0 L389.0,535.0 L393.0,532.0 L395.0,532.0 L399.0,530.0 L402.0,530.0 L403.0,529.0 L411.0,529.0 L412.0,527.0 L406.0,527.0 L405.0,526.0 L385.0,526.0 L373.0,532.0 Z M411.0,676.0 L410.0,678.0 L412.0,682.0 L414.0,684.0 L415.0,684.0 L419.0,687.0 L421.0,687.0 L425.0,689.0 L425.0,697.0 L426.0,699.0 L431.0,704.0 L437.0,704.0 L439.0,705.0 L438.0,703.0 L435.0,703.0 L434.0,702.0 L434.0,688.0 L435.0,687.0 L435.0,685.0 L433.0,683.0 L430.0,683.0 L429.0,682.0 L425.0,682.0 L423.0,680.0 L421.0,680.0 L417.0,677.0 L414.0,677.0 L413.0,676.0 Z M220.0,1121.0 L224.0,1123.0 L226.0,1125.0 L229.0,1126.0 L231.0,1128.0 L231.0,1129.0 L228.0,1132.0 L227.0,1132.0 L225.0,1134.0 L225.0,1135.0 L223.0,1137.0 L222.0,1137.0 L217.0,1142.0 L215.0,1142.0 L213.0,1140.0 L213.0,1137.0 L215.0,1133.0 L215.0,1130.0 L217.0,1126.0 L217.0,1123.0 L219.0,1121.0 Z M587.0,682.0 L589.0,682.0 L591.0,685.0 L591.0,695.0 L592.0,696.0 L592.0,698.0 L591.0,699.0 L591.0,706.0 L590.0,707.0 L588.0,706.0 L588.0,699.0 L586.0,696.0 L587.0,694.0 L587.0,689.0 L586.0,688.0 L586.0,683.0 Z M701.0,278.0 L703.0,276.0 L703.0,275.0 L705.0,274.0 L708.0,277.0 L709.0,277.0 L710.0,279.0 L711.0,279.0 L716.0,284.0 L716.0,285.0 L713.0,288.0 L711.0,288.0 L708.0,285.0 L708.0,283.0 L707.0,282.0 L704.0,282.0 L701.0,279.0 Z M674.0,681.0 L675.0,682.0 L675.0,684.0 L674.0,685.0 L676.0,688.0 L676.0,690.0 L675.0,691.0 L675.0,699.0 L674.0,700.0 L674.0,704.0 L672.0,705.0 L671.0,704.0 L671.0,700.0 L670.0,699.0 L672.0,695.0 L672.0,690.0 L671.0,689.0 L671.0,685.0 L672.0,684.0 L672.0,682.0 Z M732.0,307.0 L734.0,308.0 L736.0,306.0 L737.0,306.0 L739.0,308.0 L739.0,309.0 L737.0,311.0 L738.0,311.0 L738.0,310.0 L740.0,309.0 L743.0,312.0 L743.0,313.0 L741.0,314.0 L741.0,317.0 L740.0,318.0 L738.0,318.0 L735.0,314.0 L735.0,313.0 L731.0,310.0 L731.0,308.0 Z M751.0,955.0 L752.0,954.0 L776.0,954.0 L777.0,956.0 L776.0,957.0 L752.0,957.0 Z M746.0,730.0 L745.0,732.0 L739.0,735.0 L730.0,743.0 L728.0,742.0 L728.0,741.0 L737.0,733.0 L738.0,733.0 L740.0,731.0 L744.0,729.0 Z M956.0,1205.0 L959.0,1203.0 L961.0,1203.0 L964.0,1205.0 L964.0,1209.0 L961.0,1211.0 L959.0,1211.0 L957.0,1209.0 L956.0,1207.0 Z M387.0,651.0 L389.0,653.0 L391.0,654.0 L393.0,654.0 L394.0,655.0 L400.0,655.0 L401.0,656.0 L403.0,656.0 L402.0,654.0 L400.0,653.0 L398.0,653.0 L397.0,652.0 L395.0,652.0 L394.0,651.0 L389.0,651.0 L388.0,650.0 Z M763.0,340.0 L765.0,340.0 L768.0,343.0 L768.0,345.0 L770.0,348.0 L769.0,350.0 L767.0,349.0 L767.0,348.0 L762.0,342.0 Z M756.0,724.0 L755.0,726.0 L752.0,727.0 L750.0,729.0 L748.0,730.0 L746.0,729.0 L746.0,728.0 L748.0,727.0 L751.0,724.0 L753.0,724.0 L754.0,723.0 Z M128.0,1159.0 L128.0,1157.0 L125.0,1157.0 L124.0,1156.0 L122.0,1156.0 L121.0,1157.0 L115.0,1157.0 L116.0,1159.0 Z M738.0,956.0 L739.0,955.0 L744.0,955.0 L745.0,956.0 L745.0,957.0 L744.0,958.0 L739.0,958.0 L738.0,957.0 Z M858.0,925.0 L859.0,924.0 L860.0,924.0 L862.0,926.0 L863.0,926.0 L864.0,927.0 L864.0,928.0 L863.0,929.0 L862.0,929.0 L861.0,928.0 L860.0,928.0 L858.0,926.0 Z M867.0,1128.0 L868.0,1128.0 L869.0,1129.0 L869.0,1133.0 L868.0,1134.0 L867.0,1134.0 L866.0,1133.0 L866.0,1129.0 Z M729.0,302.0 L730.0,301.0 L731.0,301.0 L732.0,302.0 L733.0,302.0 L734.0,303.0 L734.0,304.0 L733.0,305.0 L730.0,305.0 L729.0,304.0 Z M528.0,1071.0 L529.0,1071.0 L530.0,1072.0 L530.0,1075.0 L529.0,1076.0 L528.0,1076.0 L527.0,1075.0 L527.0,1072.0 Z M732.0,926.0 L733.0,925.0 L736.0,925.0 L737.0,926.0 L737.0,927.0 L736.0,928.0 L733.0,928.0 L732.0,927.0 Z M757.0,922.0 L758.0,921.0 L761.0,921.0 L762.0,922.0 L762.0,923.0 L761.0,924.0 L758.0,924.0 L757.0,923.0 Z M370.0,1141.0 L371.0,1140.0 L373.0,1140.0 L374.0,1141.0 L374.0,1143.0 L373.0,1144.0 L372.0,1144.0 L370.0,1142.0 Z M526.0,1081.0 L527.0,1080.0 L528.0,1080.0 L529.0,1081.0 L529.0,1083.0 L528.0,1084.0 L527.0,1084.0 L526.0,1083.0 Z M528.0,1064.0 L529.0,1063.0 L530.0,1063.0 L531.0,1064.0 L531.0,1066.0 L530.0,1067.0 L529.0,1067.0 L528.0,1066.0 Z M786.0,956.0 L787.0,955.0 L789.0,955.0 L790.0,956.0 L790.0,957.0 L789.0,958.0 L787.0,958.0 L786.0,957.0 Z M738.0,925.0 L739.0,924.0 L741.0,924.0 L742.0,925.0 L742.0,926.0 L741.0,927.0 L739.0,927.0 L738.0,926.0 Z M750.0,923.0 L751.0,922.0 L753.0,922.0 L754.0,923.0 L754.0,924.0 L753.0,925.0 L751.0,925.0 L750.0,924.0 Z M758.0,335.0 L759.0,334.0 L760.0,334.0 L761.0,335.0 L761.0,337.0 L760.0,338.0 L759.0,338.0 L758.0,337.0 Z M96.0,1158.0 L104.0,1158.0 L105.0,1157.0 L96.0,1157.0 Z M526.0,1102.0 L527.0,1101.0 L528.0,1101.0 L529.0,1102.0 L529.0,1103.0 L528.0,1104.0 L527.0,1104.0 L526.0,1103.0 Z M525.0,1099.0 L526.0,1098.0 L527.0,1098.0 L528.0,1099.0 L528.0,1100.0 L527.0,1101.0 L526.0,1101.0 L525.0,1100.0 Z M528.0,1069.0 L529.0,1068.0 L530.0,1068.0 L531.0,1069.0 L531.0,1070.0 L530.0,1071.0 L529.0,1071.0 L528.0,1070.0 Z M862.0,975.0 L863.0,974.0 L864.0,974.0 L865.0,975.0 L865.0,976.0 L864.0,977.0 L863.0,977.0 L862.0,976.0 Z M856.0,972.0 L857.0,971.0 L858.0,971.0 L859.0,972.0 L859.0,973.0 L858.0,974.0 L857.0,974.0 L856.0,973.0 Z M853.0,971.0 L854.0,970.0 L855.0,970.0 L856.0,971.0 L856.0,972.0 L855.0,973.0 L854.0,973.0 L853.0,972.0 Z M820.0,961.0 L821.0,960.0 L822.0,960.0 L823.0,961.0 L823.0,962.0 L822.0,963.0 L821.0,963.0 L820.0,962.0 Z M815.0,960.0 L816.0,959.0 L817.0,959.0 L818.0,960.0 L818.0,961.0 L817.0,962.0 L816.0,962.0 L815.0,961.0 Z M797.0,957.0 L798.0,956.0 L799.0,956.0 L800.0,957.0 L800.0,958.0 L799.0,959.0 L798.0,959.0 L797.0,958.0 Z M726.0,957.0 L727.0,956.0 L728.0,956.0 L729.0,957.0 L729.0,958.0 L728.0,959.0 L727.0,959.0 L726.0,958.0 Z M722.0,957.0 L723.0,956.0 L724.0,956.0 L725.0,957.0 L725.0,958.0 L724.0,959.0 L723.0,959.0 L722.0,958.0 Z M782.0,956.0 L783.0,955.0 L784.0,955.0 L785.0,956.0 L785.0,957.0 L784.0,958.0 L783.0,958.0 L782.0,957.0 Z M714.0,931.0 L715.0,930.0 L716.0,930.0 L717.0,931.0 L717.0,932.0 L716.0,933.0 L715.0,933.0 L714.0,932.0 Z M718.0,930.0 L719.0,929.0 L720.0,929.0 L721.0,930.0 L721.0,931.0 L720.0,932.0 L719.0,932.0 L718.0,931.0 Z M721.0,929.0 L722.0,928.0 L723.0,928.0 L724.0,929.0 L724.0,930.0 L723.0,931.0 L722.0,931.0 L721.0,930.0 Z M864.0,928.0 L865.0,927.0 L866.0,927.0 L867.0,928.0 L867.0,929.0 L866.0,930.0 L865.0,930.0 L864.0,929.0 Z M725.0,928.0 L726.0,927.0 L727.0,927.0 L728.0,928.0 L728.0,929.0 L727.0,930.0 L726.0,930.0 L725.0,929.0 Z M744.0,924.0 L745.0,923.0 L746.0,923.0 L747.0,924.0 L747.0,925.0 L746.0,926.0 L745.0,926.0 L744.0,925.0 Z M776.0,920.0 L777.0,919.0 L778.0,919.0 L779.0,920.0 L779.0,921.0 L778.0,922.0 L777.0,922.0 L776.0,921.0 Z M718.0,909.0 L719.0,908.0 L720.0,908.0 L721.0,909.0 L721.0,910.0 L720.0,911.0 L719.0,911.0 L718.0,910.0 Z M367.0,891.0 L368.0,890.0 L369.0,890.0 L370.0,891.0 L370.0,892.0 L369.0,893.0 L368.0,893.0 L367.0,892.0 Z M364.0,889.0 L365.0,888.0 L366.0,888.0 L367.0,889.0 L367.0,890.0 L366.0,891.0 L365.0,891.0 L364.0,890.0 Z M765.0,718.0 L766.0,717.0 L767.0,717.0 L768.0,718.0 L768.0,719.0 L767.0,720.0 L766.0,720.0 L765.0,719.0 Z M315.0,1204.0 L315.0,1205.0 L322.0,1205.0 L321.0,1204.0 Z M392.0,1205.0 L398.0,1205.0 L399.0,1204.0 L394.0,1204.0 L393.0,1205.0 Z M490.0,1212.0 L494.0,1212.0 L493.0,1211.0 L491.0,1211.0 Z" fill-rule="evenodd"/></clipPath>
    
  <path id="star8" d="M0,-18 L4,-5 L17,-8 L7,1 L15,12 L2,6 L-5,18 L-6,5 L-19,9 L-8,0 L-16,-11 L-3,-5 Z"/>
  <path id="spark4" d="M0,-9 L2,-2 L9,0 L2,2 L0,9 L-2,2 L-9,0 L-2,-2 Z"/>

    <style>
      .bg{fill:#F7F4ED;}
      .green{fill:#2fac4d;}
      .ink{fill:#162018;}
      .dash{fill:none;stroke:#162018;stroke-width:2.3;stroke-linecap:round;stroke-dasharray:10 12;}
      .thin{fill:none;stroke:#162018;stroke-width:1.6;stroke-linecap:round;stroke-linejoin:round;}
      .creamLine{fill:none;stroke:#f4efe5;stroke-width:2.5;stroke-linecap:round;stroke-linejoin:round;}
    </style>
  </defs>

  <rect class="bg" width="100%" height="100%"/>
  <rect class="bg" width="100%" height="100%" filter="url(#paperNoise)" opacity="0.8"/>

  <!-- dark vector accents converted from the generated artwork -->
  <path class="ink" d="M829.0,223.0 L830.0,245.0 L829.0,246.0 L826.0,244.0 L823.0,244.0 L819.0,242.0 L816.0,242.0 L815.0,243.0 L814.0,241.0 L812.0,241.0 L813.0,241.0 L825.0,251.0 L825.0,252.0 L815.0,263.0 L819.0,262.0 L828.0,257.0 L831.0,259.0 L830.0,261.0 L832.0,262.0 L831.0,263.0 L831.0,266.0 L833.0,267.0 L832.0,269.0 L832.0,273.0 L833.0,272.0 L834.0,273.0 L833.0,275.0 L833.0,278.0 L833.0,276.0 L834.0,275.0 L834.0,271.0 L835.0,270.0 L835.0,266.0 L836.0,265.0 L836.0,261.0 L838.0,257.0 L841.0,259.0 L844.0,259.0 L849.0,262.0 L852.0,262.0 L853.0,263.0 L845.0,255.0 L845.0,254.0 L842.0,251.0 L842.0,249.0 L844.0,248.0 L844.0,247.0 L854.0,238.0 L850.0,239.0 L847.0,241.0 L844.0,241.0 L838.0,244.0 L836.0,242.0 L836.0,240.0 L834.0,237.0 L833.0,232.0 L831.0,229.0 L831.0,227.0 Z M486.0,908.0 L486.0,910.0 L484.0,912.0 L483.0,915.0 L481.0,917.0 L479.0,921.0 L478.0,921.0 L468.0,911.0 L470.0,914.0 L470.0,916.0 L472.0,920.0 L472.0,923.0 L473.0,924.0 L471.0,926.0 L462.0,926.0 L464.0,927.0 L462.0,928.0 L463.0,929.0 L468.0,930.0 L472.0,933.0 L469.0,936.0 L464.0,944.0 L466.0,942.0 L468.0,942.0 L466.0,941.0 L468.0,939.0 L470.0,940.0 L475.0,937.0 L477.0,938.0 L478.0,940.0 L478.0,943.0 L480.0,944.0 L479.0,947.0 L481.0,948.0 L482.0,941.0 L484.0,937.0 L496.0,943.0 L492.0,939.0 L492.0,938.0 L487.0,932.0 L492.0,928.0 L500.0,925.0 L500.0,924.0 L499.0,925.0 L490.0,925.0 L489.0,926.0 L487.0,926.0 L485.0,924.0 L485.0,915.0 L486.0,914.0 L484.0,913.0 L486.0,910.0 Z M228.0,735.0 L227.0,736.0 L227.0,739.0 L226.0,740.0 L226.0,743.0 L225.0,744.0 L225.0,747.0 L224.0,748.0 L224.0,751.0 L223.0,752.0 L218.0,749.0 L216.0,749.0 L215.0,747.0 L212.0,746.0 L210.0,744.0 L212.0,748.0 L216.0,752.0 L216.0,753.0 L218.0,754.0 L219.0,757.0 L215.0,760.0 L206.0,764.0 L218.0,763.0 L219.0,762.0 L222.0,763.0 L223.0,764.0 L222.0,765.0 L222.0,768.0 L223.0,769.0 L223.0,776.0 L225.0,769.0 L228.0,764.0 L236.0,769.0 L239.0,772.0 L236.0,765.0 L234.0,763.0 L232.0,759.0 L245.0,751.0 L245.0,750.0 L244.0,751.0 L236.0,752.0 L237.0,753.0 L236.0,754.0 L235.0,754.0 L234.0,752.0 L231.0,754.0 L229.0,752.0 L229.0,748.0 L228.0,747.0 L228.0,737.0 L227.0,736.0 Z M978.0,421.0 L978.0,427.0 L977.0,428.0 L976.0,427.0 L972.0,426.0 L976.0,429.0 L976.0,430.0 L973.0,433.0 L977.0,431.0 L978.0,432.0 L978.0,437.0 L978.0,435.0 L980.0,431.0 L986.0,434.0 L981.0,429.0 L985.0,425.0 L979.0,428.0 L978.0,427.0 Z M122.0,1027.0 L121.0,1027.0 L121.0,1032.0 L120.0,1033.0 L116.0,1031.0 L120.0,1034.0 L120.0,1036.0 L121.0,1037.0 L121.0,1042.0 L121.0,1040.0 L124.0,1036.0 L127.0,1038.0 L124.0,1035.0 L124.0,1034.0 L128.0,1031.0 L126.0,1032.0 L123.0,1032.0 L122.0,1031.0 Z M190.0,963.0 L190.0,966.0 L188.0,969.0 L184.0,967.0 L187.0,970.0 L187.0,971.0 L185.0,973.0 L187.0,972.0 L189.0,973.0 L189.0,977.0 L188.0,978.0 L189.0,978.0 L189.0,975.0 L191.0,972.0 L195.0,975.0 L195.0,974.0 L194.0,974.0 L192.0,971.0 L196.0,967.0 L193.0,968.0 L192.0,970.0 L190.0,967.0 Z M756.0,126.0 L755.0,136.0 L753.0,140.0 L757.0,135.0 L761.0,137.0 L763.0,137.0 L762.0,137.0 L759.0,134.0 L762.0,129.0 L758.0,131.0 L757.0,130.0 Z M957.0,1205.0 L957.0,1207.0 L959.0,1210.0 L963.0,1209.0 L963.0,1207.0 L962.0,1206.0 L963.0,1205.0 L961.0,1204.0 Z M471.0,1246.0 L470.0,1247.0 L469.0,1247.0 L467.0,1249.0 L465.0,1249.0 L464.0,1248.0 L464.0,1251.0 L463.0,1252.0 L463.0,1253.0 L461.0,1255.0 L461.0,1256.0 L463.0,1253.0 L464.0,1253.0 L465.0,1252.0 L466.0,1252.0 L467.0,1253.0 L468.0,1252.0 L467.0,1249.0 L468.0,1248.0 L469.0,1248.0 Z M104.0,1208.0 L100.0,1212.0 L100.0,1213.0 L97.0,1216.0 L96.0,1216.0 L93.0,1219.0 L93.0,1220.0 L92.0,1221.0 L91.0,1221.0 L92.0,1222.0 L93.0,1222.0 L96.0,1225.0 L97.0,1225.0 L100.0,1228.0 L101.0,1228.0 L103.0,1230.0 L104.0,1230.0 L103.0,1229.0 L102.0,1229.0 L99.0,1226.0 L98.0,1226.0 L96.0,1224.0 L95.0,1224.0 L94.0,1223.0 L93.0,1220.0 L104.0,1209.0 Z M178.0,553.0 L178.0,556.0 L177.0,557.0 L177.0,558.0 L178.0,559.0 L177.0,560.0 L177.0,562.0 L178.0,563.0 L179.0,566.0 L179.0,561.0 L180.0,560.0 L183.0,560.0 L181.0,560.0 L178.0,558.0 Z M541.0,899.0 L541.0,901.0 L539.0,903.0 L538.0,903.0 L539.0,904.0 L539.0,906.0 L538.0,907.0 L538.0,908.0 L538.0,907.0 L540.0,905.0 L541.0,905.0 L543.0,907.0 L542.0,904.0 L543.0,903.0 L544.0,903.0 L542.0,903.0 L541.0,902.0 Z M968.0,487.0 L968.0,488.0 L973.0,493.0 L974.0,493.0 Z M953.0,473.0 L959.0,479.0 L959.0,478.0 L954.0,473.0 Z M995.0,517.0 L995.0,518.0 L998.0,521.0 L998.0,522.0 L1000.0,524.0 L1000.0,523.0 L997.0,520.0 L997.0,519.0 Z M838.0,244.0 L839.0,243.0 L840.0,243.0 L841.0,244.0 L840.0,245.0 L839.0,245.0 Z M110.0,1202.0 L106.0,1206.0 L107.0,1206.0 L110.0,1203.0 Z M1038.0,583.0 L1038.0,584.0 L1039.0,585.0 L1039.0,586.0 L1040.0,587.0 L1041.0,590.0 L1042.0,590.0 L1041.0,589.0 L1041.0,588.0 Z M982.0,503.0 L987.0,508.0 L986.0,507.0 L986.0,506.0 L983.0,503.0 Z M107.0,1233.0 L108.0,1234.0 L109.0,1234.0 L111.0,1236.0 L112.0,1236.0 L110.0,1234.0 Z M904.0,432.0 L906.0,434.0 L907.0,434.0 L910.0,437.0 L911.0,437.0 L909.0,435.0 L908.0,435.0 L906.0,433.0 L905.0,433.0 Z" fill-rule="evenodd"/>

  <!-- main girl/pen/writing silhouette converted into vector paths -->
  <path class="green" d="M488.0,242.0 L431.0,279.0 L416.0,295.0 L386.0,310.0 L345.0,353.0 L325.0,380.0 L305.0,423.0 L300.0,476.0 L309.0,501.0 L323.0,521.0 L336.0,530.0 L342.0,527.0 L359.0,531.0 L359.0,527.0 L332.0,504.0 L321.0,479.0 L321.0,462.0 L337.0,496.0 L350.0,508.0 L368.0,516.0 L382.0,518.0 L410.0,511.0 L390.0,502.0 L381.0,494.0 L382.0,490.0 L408.0,503.0 L454.0,506.0 L472.0,516.0 L502.0,519.0 L522.0,512.0 L536.0,516.0 L529.0,482.0 L534.0,468.0 L547.0,460.0 L541.0,500.0 L557.0,533.0 L561.0,573.0 L546.0,700.0 L495.0,743.0 L477.0,747.0 L498.0,748.0 L537.0,731.0 L520.0,786.0 L534.0,760.0 L543.0,728.0 L573.0,712.0 L567.0,778.0 L555.0,808.0 L541.0,821.0 L544.0,824.0 L567.0,815.0 L586.0,777.0 L587.0,798.0 L577.0,820.0 L581.0,822.0 L648.0,798.0 L663.0,785.0 L672.0,785.0 L695.0,774.0 L663.0,853.0 L630.0,981.0 L589.0,1003.0 L537.0,1044.0 L436.0,1040.0 L425.0,1048.0 L323.0,993.0 L378.0,906.0 L388.0,879.0 L375.0,869.0 L349.0,898.0 L297.0,986.0 L221.0,1007.0 L211.0,1017.0 L208.0,1029.0 L214.0,1086.0 L208.0,1095.0 L208.0,1104.0 L218.0,1115.0 L205.0,1155.0 L132.0,1158.0 L552.0,1170.0 L733.0,1218.0 L858.0,1263.0 L1085.0,1363.0 L1085.0,888.0 L951.0,717.0 L926.0,694.0 L895.0,676.0 L906.0,667.0 L912.0,669.0 L924.0,663.0 L936.0,640.0 L937.0,656.0 L951.0,651.0 L961.0,634.0 L959.0,607.0 L948.0,579.0 L915.0,533.0 L951.0,561.0 L970.0,591.0 L980.0,624.0 L982.0,603.0 L974.0,580.0 L947.0,545.0 L863.0,475.0 L763.0,323.0 L689.0,248.0 L658.0,231.0 L611.0,219.0 L542.0,224.0 Z M210.0,1097.0 L212.0,1092.0 L227.0,1078.0 L239.0,1064.0 L250.0,1059.0 L255.0,1059.0 L258.0,1057.0 L284.0,1052.0 L303.0,1042.0 L308.0,1035.0 L313.0,1023.0 L317.0,1002.0 L321.0,996.0 L336.0,1003.0 L344.0,1009.0 L366.0,1020.0 L378.0,1028.0 L381.0,1028.0 L386.0,1032.0 L394.0,1035.0 L402.0,1041.0 L426.0,1052.0 L421.0,1084.0 L422.0,1087.0 L421.0,1107.0 L426.0,1138.0 L422.0,1140.0 L415.0,1139.0 L387.0,1140.0 L376.0,1137.0 L372.0,1133.0 L361.0,1133.0 L345.0,1129.0 L316.0,1114.0 L301.0,1103.0 L303.0,1100.0 L302.0,1099.0 L297.0,1100.0 L291.0,1098.0 L279.0,1098.0 L264.0,1100.0 L246.0,1110.0 L238.0,1112.0 L223.0,1112.0 L215.0,1109.0 L210.0,1103.0 Z M208.0,1156.0 L217.0,1145.0 L231.0,1133.0 L237.0,1126.0 L240.0,1128.0 L242.0,1133.0 L246.0,1135.0 L242.0,1124.0 L242.0,1118.0 L246.0,1112.0 L251.0,1112.0 L258.0,1115.0 L265.0,1113.0 L271.0,1122.0 L281.0,1122.0 L282.0,1121.0 L293.0,1122.0 L294.0,1124.0 L300.0,1127.0 L305.0,1133.0 L310.0,1133.0 L313.0,1138.0 L337.0,1148.0 L365.0,1149.0 L366.0,1148.0 L383.0,1146.0 L388.0,1144.0 L393.0,1144.0 L396.0,1142.0 L398.0,1143.0 L399.0,1142.0 L403.0,1143.0 L414.0,1142.0 L425.0,1144.0 L428.0,1143.0 L433.0,1152.0 L432.0,1154.0 L406.0,1154.0 L405.0,1155.0 L322.0,1155.0 L321.0,1156.0 L319.0,1155.0 L313.0,1155.0 L312.0,1156.0 L300.0,1156.0 L299.0,1155.0 L297.0,1156.0 L296.0,1155.0 L295.0,1156.0 L238.0,1156.0 L237.0,1157.0 L225.0,1157.0 L224.0,1156.0 L209.0,1157.0 Z M293.0,989.0 L294.0,990.0 L294.0,992.0 L292.0,994.0 L288.0,1002.0 L284.0,1007.0 L281.0,1014.0 L279.0,1016.0 L276.0,1022.0 L272.0,1027.0 L270.0,1032.0 L266.0,1035.0 L263.0,1035.0 L260.0,1037.0 L258.0,1037.0 L254.0,1039.0 L251.0,1039.0 L250.0,1040.0 L247.0,1040.0 L245.0,1039.0 L245.0,1044.0 L246.0,1045.0 L246.0,1057.0 L244.0,1059.0 L237.0,1062.0 L237.0,1063.0 L232.0,1068.0 L232.0,1069.0 L221.0,1080.0 L219.0,1081.0 L217.0,1081.0 L216.0,1080.0 L216.0,1072.0 L215.0,1071.0 L215.0,1058.0 L214.0,1057.0 L214.0,1054.0 L213.0,1053.0 L213.0,1043.0 L212.0,1042.0 L212.0,1037.0 L211.0,1036.0 L211.0,1031.0 L212.0,1030.0 L212.0,1023.0 L213.0,1022.0 L213.0,1020.0 L214.0,1018.0 L219.0,1013.0 L222.0,1012.0 L224.0,1010.0 L226.0,1010.0 L227.0,1009.0 L229.0,1009.0 L230.0,1008.0 L232.0,1008.0 L233.0,1007.0 L235.0,1007.0 L236.0,1006.0 L238.0,1006.0 L239.0,1005.0 L241.0,1005.0 L242.0,1004.0 L244.0,1004.0 L245.0,1003.0 L247.0,1003.0 L248.0,1002.0 L253.0,1001.0 L258.0,998.0 L260.0,999.0 L261.0,998.0 L264.0,998.0 L268.0,996.0 L275.0,995.0 L277.0,993.0 L280.0,993.0 L281.0,992.0 L283.0,992.0 L284.0,991.0 L286.0,991.0 L290.0,989.0 Z M565.0,607.0 L566.0,608.0 L566.0,618.0 L567.0,619.0 L567.0,632.0 L568.0,633.0 L568.0,647.0 L569.0,648.0 L569.0,653.0 L570.0,654.0 L570.0,665.0 L571.0,666.0 L571.0,682.0 L572.0,683.0 L572.0,688.0 L571.0,689.0 L568.0,689.0 L567.0,690.0 L565.0,690.0 L561.0,692.0 L559.0,694.0 L557.0,694.0 L553.0,698.0 L552.0,698.0 L551.0,697.0 L551.0,691.0 L552.0,690.0 L552.0,684.0 L553.0,683.0 L553.0,679.0 L554.0,678.0 L554.0,675.0 L555.0,674.0 L555.0,664.0 L557.0,660.0 L557.0,651.0 L558.0,650.0 L558.0,647.0 L559.0,646.0 L559.0,636.0 L560.0,635.0 L560.0,631.0 L561.0,630.0 L561.0,619.0 L562.0,618.0 L562.0,611.0 L563.0,610.0 L563.0,608.0 Z M390.0,556.0 L398.0,572.0 L398.0,582.0 L394.0,588.0 L391.0,589.0 L389.0,591.0 L385.0,593.0 L382.0,593.0 L382.0,595.0 L386.0,595.0 L387.0,596.0 L394.0,596.0 L395.0,595.0 L398.0,595.0 L402.0,593.0 L404.0,594.0 L406.0,594.0 L409.0,591.0 L411.0,591.0 L412.0,592.0 L413.0,591.0 L415.0,591.0 L415.0,590.0 L418.0,587.0 L421.0,581.0 L421.0,579.0 L422.0,578.0 L422.0,575.0 L423.0,574.0 L423.0,569.0 L424.0,568.0 L424.0,565.0 L426.0,563.0 L427.0,560.0 L426.0,559.0 L418.0,566.0 L417.0,566.0 L412.0,570.0 L407.0,572.0 L405.0,574.0 L401.0,574.0 L399.0,572.0 L399.0,570.0 L395.0,562.0 L393.0,560.0 L392.0,557.0 Z M370.0,538.0 L372.0,542.0 L375.0,545.0 L376.0,545.0 L381.0,549.0 L385.0,549.0 L383.0,545.0 L383.0,543.0 L384.0,542.0 L384.0,540.0 L385.0,538.0 L388.0,535.0 L389.0,535.0 L393.0,532.0 L395.0,532.0 L399.0,530.0 L402.0,530.0 L403.0,529.0 L411.0,529.0 L412.0,527.0 L406.0,527.0 L405.0,526.0 L385.0,526.0 L373.0,532.0 Z M411.0,676.0 L410.0,678.0 L412.0,682.0 L414.0,684.0 L415.0,684.0 L419.0,687.0 L421.0,687.0 L425.0,689.0 L425.0,697.0 L426.0,699.0 L431.0,704.0 L437.0,704.0 L439.0,705.0 L438.0,703.0 L435.0,703.0 L434.0,702.0 L434.0,688.0 L435.0,687.0 L435.0,685.0 L433.0,683.0 L430.0,683.0 L429.0,682.0 L425.0,682.0 L423.0,680.0 L421.0,680.0 L417.0,677.0 L414.0,677.0 L413.0,676.0 Z M220.0,1121.0 L224.0,1123.0 L226.0,1125.0 L229.0,1126.0 L231.0,1128.0 L231.0,1129.0 L228.0,1132.0 L227.0,1132.0 L225.0,1134.0 L225.0,1135.0 L223.0,1137.0 L222.0,1137.0 L217.0,1142.0 L215.0,1142.0 L213.0,1140.0 L213.0,1137.0 L215.0,1133.0 L215.0,1130.0 L217.0,1126.0 L217.0,1123.0 L219.0,1121.0 Z M587.0,682.0 L589.0,682.0 L591.0,685.0 L591.0,695.0 L592.0,696.0 L592.0,698.0 L591.0,699.0 L591.0,706.0 L590.0,707.0 L588.0,706.0 L588.0,699.0 L586.0,696.0 L587.0,694.0 L587.0,689.0 L586.0,688.0 L586.0,683.0 Z M701.0,278.0 L703.0,276.0 L703.0,275.0 L705.0,274.0 L708.0,277.0 L709.0,277.0 L710.0,279.0 L711.0,279.0 L716.0,284.0 L716.0,285.0 L713.0,288.0 L711.0,288.0 L708.0,285.0 L708.0,283.0 L707.0,282.0 L704.0,282.0 L701.0,279.0 Z M674.0,681.0 L675.0,682.0 L675.0,684.0 L674.0,685.0 L676.0,688.0 L676.0,690.0 L675.0,691.0 L675.0,699.0 L674.0,700.0 L674.0,704.0 L672.0,705.0 L671.0,704.0 L671.0,700.0 L670.0,699.0 L672.0,695.0 L672.0,690.0 L671.0,689.0 L671.0,685.0 L672.0,684.0 L672.0,682.0 Z M732.0,307.0 L734.0,308.0 L736.0,306.0 L737.0,306.0 L739.0,308.0 L739.0,309.0 L737.0,311.0 L738.0,311.0 L738.0,310.0 L740.0,309.0 L743.0,312.0 L743.0,313.0 L741.0,314.0 L741.0,317.0 L740.0,318.0 L738.0,318.0 L735.0,314.0 L735.0,313.0 L731.0,310.0 L731.0,308.0 Z M751.0,955.0 L752.0,954.0 L776.0,954.0 L777.0,956.0 L776.0,957.0 L752.0,957.0 Z M746.0,730.0 L745.0,732.0 L739.0,735.0 L730.0,743.0 L728.0,742.0 L728.0,741.0 L737.0,733.0 L738.0,733.0 L740.0,731.0 L744.0,729.0 Z M956.0,1205.0 L959.0,1203.0 L961.0,1203.0 L964.0,1205.0 L964.0,1209.0 L961.0,1211.0 L959.0,1211.0 L957.0,1209.0 L956.0,1207.0 Z M387.0,651.0 L389.0,653.0 L391.0,654.0 L393.0,654.0 L394.0,655.0 L400.0,655.0 L401.0,656.0 L403.0,656.0 L402.0,654.0 L400.0,653.0 L398.0,653.0 L397.0,652.0 L395.0,652.0 L394.0,651.0 L389.0,651.0 L388.0,650.0 Z M763.0,340.0 L765.0,340.0 L768.0,343.0 L768.0,345.0 L770.0,348.0 L769.0,350.0 L767.0,349.0 L767.0,348.0 L762.0,342.0 Z M756.0,724.0 L755.0,726.0 L752.0,727.0 L750.0,729.0 L748.0,730.0 L746.0,729.0 L746.0,728.0 L748.0,727.0 L751.0,724.0 L753.0,724.0 L754.0,723.0 Z M128.0,1159.0 L128.0,1157.0 L125.0,1157.0 L124.0,1156.0 L122.0,1156.0 L121.0,1157.0 L115.0,1157.0 L116.0,1159.0 Z M738.0,956.0 L739.0,955.0 L744.0,955.0 L745.0,956.0 L745.0,957.0 L744.0,958.0 L739.0,958.0 L738.0,957.0 Z M858.0,925.0 L859.0,924.0 L860.0,924.0 L862.0,926.0 L863.0,926.0 L864.0,927.0 L864.0,928.0 L863.0,929.0 L862.0,929.0 L861.0,928.0 L860.0,928.0 L858.0,926.0 Z M867.0,1128.0 L868.0,1128.0 L869.0,1129.0 L869.0,1133.0 L868.0,1134.0 L867.0,1134.0 L866.0,1133.0 L866.0,1129.0 Z M729.0,302.0 L730.0,301.0 L731.0,301.0 L732.0,302.0 L733.0,302.0 L734.0,303.0 L734.0,304.0 L733.0,305.0 L730.0,305.0 L729.0,304.0 Z M528.0,1071.0 L529.0,1071.0 L530.0,1072.0 L530.0,1075.0 L529.0,1076.0 L528.0,1076.0 L527.0,1075.0 L527.0,1072.0 Z M732.0,926.0 L733.0,925.0 L736.0,925.0 L737.0,926.0 L737.0,927.0 L736.0,928.0 L733.0,928.0 L732.0,927.0 Z M757.0,922.0 L758.0,921.0 L761.0,921.0 L762.0,922.0 L762.0,923.0 L761.0,924.0 L758.0,924.0 L757.0,923.0 Z M370.0,1141.0 L371.0,1140.0 L373.0,1140.0 L374.0,1141.0 L374.0,1143.0 L373.0,1144.0 L372.0,1144.0 L370.0,1142.0 Z M526.0,1081.0 L527.0,1080.0 L528.0,1080.0 L529.0,1081.0 L529.0,1083.0 L528.0,1084.0 L527.0,1084.0 L526.0,1083.0 Z M528.0,1064.0 L529.0,1063.0 L530.0,1063.0 L531.0,1064.0 L531.0,1066.0 L530.0,1067.0 L529.0,1067.0 L528.0,1066.0 Z M786.0,956.0 L787.0,955.0 L789.0,955.0 L790.0,956.0 L790.0,957.0 L789.0,958.0 L787.0,958.0 L786.0,957.0 Z M738.0,925.0 L739.0,924.0 L741.0,924.0 L742.0,925.0 L742.0,926.0 L741.0,927.0 L739.0,927.0 L738.0,926.0 Z M750.0,923.0 L751.0,922.0 L753.0,922.0 L754.0,923.0 L754.0,924.0 L753.0,925.0 L751.0,925.0 L750.0,924.0 Z M758.0,335.0 L759.0,334.0 L760.0,334.0 L761.0,335.0 L761.0,337.0 L760.0,338.0 L759.0,338.0 L758.0,337.0 Z M96.0,1158.0 L104.0,1158.0 L105.0,1157.0 L96.0,1157.0 Z M526.0,1102.0 L527.0,1101.0 L528.0,1101.0 L529.0,1102.0 L529.0,1103.0 L528.0,1104.0 L527.0,1104.0 L526.0,1103.0 Z M525.0,1099.0 L526.0,1098.0 L527.0,1098.0 L528.0,1099.0 L528.0,1100.0 L527.0,1101.0 L526.0,1101.0 L525.0,1100.0 Z M528.0,1069.0 L529.0,1068.0 L530.0,1068.0 L531.0,1069.0 L531.0,1070.0 L530.0,1071.0 L529.0,1071.0 L528.0,1070.0 Z M862.0,975.0 L863.0,974.0 L864.0,974.0 L865.0,975.0 L865.0,976.0 L864.0,977.0 L863.0,977.0 L862.0,976.0 Z M856.0,972.0 L857.0,971.0 L858.0,971.0 L859.0,972.0 L859.0,973.0 L858.0,974.0 L857.0,974.0 L856.0,973.0 Z M853.0,971.0 L854.0,970.0 L855.0,970.0 L856.0,971.0 L856.0,972.0 L855.0,973.0 L854.0,973.0 L853.0,972.0 Z M820.0,961.0 L821.0,960.0 L822.0,960.0 L823.0,961.0 L823.0,962.0 L822.0,963.0 L821.0,963.0 L820.0,962.0 Z M815.0,960.0 L816.0,959.0 L817.0,959.0 L818.0,960.0 L818.0,961.0 L817.0,962.0 L816.0,962.0 L815.0,961.0 Z M797.0,957.0 L798.0,956.0 L799.0,956.0 L800.0,957.0 L800.0,958.0 L799.0,959.0 L798.0,959.0 L797.0,958.0 Z M726.0,957.0 L727.0,956.0 L728.0,956.0 L729.0,957.0 L729.0,958.0 L728.0,959.0 L727.0,959.0 L726.0,958.0 Z M722.0,957.0 L723.0,956.0 L724.0,956.0 L725.0,957.0 L725.0,958.0 L724.0,959.0 L723.0,959.0 L722.0,958.0 Z M782.0,956.0 L783.0,955.0 L784.0,955.0 L785.0,956.0 L785.0,957.0 L784.0,958.0 L783.0,958.0 L782.0,957.0 Z M714.0,931.0 L715.0,930.0 L716.0,930.0 L717.0,931.0 L717.0,932.0 L716.0,933.0 L715.0,933.0 L714.0,932.0 Z M718.0,930.0 L719.0,929.0 L720.0,929.0 L721.0,930.0 L721.0,931.0 L720.0,932.0 L719.0,932.0 L718.0,931.0 Z M721.0,929.0 L722.0,928.0 L723.0,928.0 L724.0,929.0 L724.0,930.0 L723.0,931.0 L722.0,931.0 L721.0,930.0 Z M864.0,928.0 L865.0,927.0 L866.0,927.0 L867.0,928.0 L867.0,929.0 L866.0,930.0 L865.0,930.0 L864.0,929.0 Z M725.0,928.0 L726.0,927.0 L727.0,927.0 L728.0,928.0 L728.0,929.0 L727.0,930.0 L726.0,930.0 L725.0,929.0 Z M744.0,924.0 L745.0,923.0 L746.0,923.0 L747.0,924.0 L747.0,925.0 L746.0,926.0 L745.0,926.0 L744.0,925.0 Z M776.0,920.0 L777.0,919.0 L778.0,919.0 L779.0,920.0 L779.0,921.0 L778.0,922.0 L777.0,922.0 L776.0,921.0 Z M718.0,909.0 L719.0,908.0 L720.0,908.0 L721.0,909.0 L721.0,910.0 L720.0,911.0 L719.0,911.0 L718.0,910.0 Z M367.0,891.0 L368.0,890.0 L369.0,890.0 L370.0,891.0 L370.0,892.0 L369.0,893.0 L368.0,893.0 L367.0,892.0 Z M364.0,889.0 L365.0,888.0 L366.0,888.0 L367.0,889.0 L367.0,890.0 L366.0,891.0 L365.0,891.0 L364.0,890.0 Z M765.0,718.0 L766.0,717.0 L767.0,717.0 L768.0,718.0 L768.0,719.0 L767.0,720.0 L766.0,720.0 L765.0,719.0 Z M315.0,1204.0 L315.0,1205.0 L322.0,1205.0 L321.0,1204.0 Z M392.0,1205.0 L398.0,1205.0 L399.0,1204.0 L394.0,1204.0 L393.0,1205.0 Z M490.0,1212.0 L494.0,1212.0 L493.0,1211.0 L491.0,1211.0 Z" fill-rule="evenodd" filter="url(#roughen)"/>

  <!-- subtle green print texture, clipped to the subject -->
  <g clip-path="url(#greenClip)" opacity="0.18">
    <rect width="100%" height="100%" fill="#f4efe5" filter="url(#paperNoise)"/>
  </g>

  <!-- retained atmospheric VFX only: stars, dots, and dashed motion lines -->
  <g class="ink" opacity="0.92">
    <use href="#star8" transform="translate(760 132) scale(0.45)"/>
    <use href="#star8" transform="translate(837 243) scale(0.95)"/>
    <use href="#star8" transform="translate(981 427) scale(0.38)"/>
    <use href="#star8" transform="translate(224 759) scale(0.75)"/>
    <use href="#star8" transform="translate(481 934) scale(0.82)"/>
    <use href="#star8" transform="translate(187 977) scale(0.35)"/>
    <use href="#star8" transform="translate(125 1040) scale(0.35)"/>
    <use href="#star8" transform="translate(951 1215) scale(0.45)"/>
    <use href="#star8" transform="translate(466 1260) scale(0.35)"/>
  </g>
  <g class="ink" opacity="0.55">
    <circle cx="835" cy="250" r="0.60" opacity="0.66"/>
    <circle cx="844" cy="359" r="0.75" opacity="0.62"/>
    <circle cx="463" cy="1253" r="0.60" opacity="0.44"/>
    <circle cx="956" cy="475" r="0.75" opacity="0.41"/>
    <circle cx="977" cy="429" r="0.90" opacity="0.38"/>
    <circle cx="754" cy="138" r="1.10" opacity="0.59"/>
    <circle cx="911" cy="1320" r="0.60" opacity="0.40"/>
    <circle cx="358" cy="1203" r="0.60" opacity="0.54"/>
    <circle cx="875" cy="1305" r="1.10" opacity="0.39"/>
    <circle cx="823" cy="260" r="0.90" opacity="0.60"/>
    <circle cx="465" cy="929" r="0.60" opacity="0.63"/>
    <circle cx="98" cy="1215" r="0.60" opacity="0.47"/>
    <circle cx="840" cy="251" r="0.90" opacity="0.41"/>
    <circle cx="225" cy="771" r="1.10" opacity="0.41"/>
    <circle cx="787" cy="1273" r="0.90" opacity="0.45"/>
    <circle cx="464" cy="1248" r="0.75" opacity="0.57"/>
    <circle cx="474" cy="931" r="0.90" opacity="0.40"/>
    <circle cx="488" cy="935" r="0.75" opacity="0.52"/>
    <circle cx="998" cy="522" r="0.60" opacity="0.40"/>
    <circle cx="429" cy="1205" r="0.75" opacity="0.69"/>
    <circle cx="225" cy="759" r="0.90" opacity="0.52"/>
    <circle cx="479" cy="931" r="0.75" opacity="0.72"/>
    <circle cx="1048" cy="604" r="0.75" opacity="0.38"/>
    <circle cx="900" cy="1315" r="0.75" opacity="0.45"/>
    <circle cx="728" cy="1256" r="1.10" opacity="0.37"/>
    <circle cx="773" cy="1269" r="0.60" opacity="0.44"/>
    <circle cx="916" cy="1321" r="0.60" opacity="0.71"/>
    <circle cx="1054" cy="779" r="0.90" opacity="0.66"/>
    <circle cx="509" cy="1213" r="0.90" opacity="0.72"/>
    <circle cx="254" cy="1207" r="0.75" opacity="0.67"/>
    <circle cx="600" cy="1227" r="0.75" opacity="0.59"/>
    <circle cx="1032" cy="573" r="0.75" opacity="0.50"/>
    <circle cx="479" cy="948" r="1.10" opacity="0.54"/>
    <circle cx="459" cy="927" r="0.90" opacity="0.70"/>
    <circle cx="766" cy="1267" r="0.75" opacity="0.39"/>
    <circle cx="825" cy="259" r="0.60" opacity="0.48"/>
    <circle cx="462" cy="926" r="1.10" opacity="0.61"/>
    <circle cx="972" cy="491" r="0.90" opacity="0.61"/>
    <circle cx="975" cy="428" r="1.10" opacity="0.37"/>
    <circle cx="225" cy="756" r="0.90" opacity="0.69"/>
    <circle cx="470" cy="1253" r="0.60" opacity="0.40"/>
    <circle cx="1008" cy="534" r="1.10" opacity="0.69"/>
    <circle cx="548" cy="1218" r="0.90" opacity="0.54"/>
    <circle cx="178" cy="553" r="0.75" opacity="0.75"/>
    <circle cx="465" cy="1246" r="0.90" opacity="0.60"/>
    <circle cx="477" cy="936" r="0.75" opacity="0.43"/>
    <circle cx="909" cy="436" r="1.10" opacity="0.70"/>
    <circle cx="845" cy="254" r="1.10" opacity="0.65"/>
    <circle cx="481" cy="945" r="0.60" opacity="0.50"/>
    <circle cx="836" cy="258" r="0.75" opacity="0.65"/>
    <circle cx="839" cy="248" r="0.90" opacity="0.60"/>
    <circle cx="187" cy="970" r="0.60" opacity="0.66"/>
    <circle cx="1031" cy="571" r="1.10" opacity="0.57"/>
    <circle cx="827" cy="257" r="0.90" opacity="0.56"/>
    <circle cx="188" cy="978" r="0.60" opacity="0.48"/>
    <circle cx="183" cy="974" r="1.10" opacity="0.67"/>
    <circle cx="832" cy="232" r="0.90" opacity="0.68"/>
    <circle cx="829" cy="226" r="0.60" opacity="0.42"/>
    <circle cx="845" cy="1293" r="0.60" opacity="0.49"/>
    <circle cx="212" cy="748" r="0.60" opacity="0.68"/>
    <circle cx="463" cy="926" r="1.10" opacity="0.57"/>
    <circle cx="232" cy="774" r="0.90" opacity="0.54"/>
    <circle cx="163" cy="1214" r="0.60" opacity="0.69"/>
    <circle cx="479" cy="923" r="0.90" opacity="0.62"/>
    <circle cx="836" cy="246" r="0.75" opacity="0.63"/>
    <circle cx="192" cy="971" r="1.10" opacity="0.47"/>
    <circle cx="825" cy="253" r="0.60" opacity="0.57"/>
    <circle cx="842" cy="259" r="0.90" opacity="0.59"/>
  </g>
  <path class="dash" d="M858 399 C1025 489 1122 659 1035 816"/>
  <path class="dash" d="M111 1226 C330 1182 661 1202 992 1370"/>
  <path class="thin" d="M111 1226 L82 1199 M111 1226 L82 1254"/>
</svg>
